<svg xmlns="http://www.w3.org/2000/svg" width="1320" height="650" viewBox="0 0 1320 650">
<rect width="100%" height="100%" fill="white"/>
<text x="40" y="65" font-family="Microsoft JhengHei, sans-serif" font-size="42" font-weight="700" fill="#111">圖一：被動元件產業鏈全貌</text>
<defs><marker id="arrow" markerWidth="10" markerHeight="10" refX="9" refY="3" orient="auto" markerUnits="strokeWidth"><path d="M0,0 L0,6 L9,3 z" fill="#333"/></marker></defs>
<line x1="250" y1="390" x2="285" y2="390" stroke="#333" stroke-width="4" marker-end="url(#arrow)"/>
<line x1="500" y1="390" x2="535" y2="390" stroke="#333" stroke-width="4" marker-end="url(#arrow)"/>
<line x1="750" y1="390" x2="785" y2="390" stroke="#333" stroke-width="4" marker-end="url(#arrow)"/>
<line x1="1000" y1="390" x2="1035" y2="390" stroke="#333" stroke-width="4" marker-end="url(#arrow)"/>
<rect x="40" y="120" width="205" height="65" rx="18" fill="#c3fae8" stroke="#1e1e1e" stroke-width="3"/>
<text x="142.5" y="152.5" text-anchor="middle" dominant-baseline="middle" font-family="Microsoft JhengHei, sans-serif" font-size="24" fill="#1e1e1e">上游材料</text>
<rect x="40" y="215" width="205" height="62" rx="18" fill="#c3fae8" stroke="#1e1e1e" stroke-width="3"/>
<text x="142.5" y="246.0" text-anchor="middle" dominant-baseline="middle" font-family="Microsoft JhengHei, sans-serif" font-size="24" fill="#1e1e1e">BaTiO3粉體</text>
<rect x="40" y="300" width="205" height="62" rx="18" fill="#c3fae8" stroke="#1e1e1e" stroke-width="3"/>
<text x="142.5" y="331.0" text-anchor="middle" dominant-baseline="middle" font-family="Microsoft JhengHei, sans-serif" font-size="24" fill="#1e1e1e">Ni/RuO2電極</text>
<rect x="40" y="385" width="205" height="62" rx="18" fill="#c3fae8" stroke="#1e1e1e" stroke-width="3"/>
<text x="142.5" y="416.0" text-anchor="middle" dominant-baseline="middle" font-family="Microsoft JhengHei, sans-serif" font-size="24" fill="#1e1e1e">鐵氧體/磁粉芯</text>
<rect x="40" y="470" width="205" height="62" rx="18" fill="#c3fae8" stroke="#1e1e1e" stroke-width="3"/>
<text x="142.5" y="501.0" text-anchor="middle" dominant-baseline="middle" font-family="Microsoft JhengHei, sans-serif" font-size="24" fill="#1e1e1e">NiCr/Cu合金</text>
<rect x="290" y="120" width="205" height="65" rx="18" fill="#a5d8ff" stroke="#1e1e1e" stroke-width="3"/>
<text x="392.5" y="152.5" text-anchor="middle" dominant-baseline="middle" font-family="Microsoft JhengHei, sans-serif" font-size="24" fill="#1e1e1e">元件製造</text>
<rect x="290" y="215" width="205" height="62" rx="18" fill="#a5d8ff" stroke="#1e1e1e" stroke-width="3"/>
<text x="392.5" y="246.0" text-anchor="middle" dominant-baseline="middle" font-family="Microsoft JhengHei, sans-serif" font-size="24" fill="#1e1e1e">MLCC</text>
<rect x="290" y="300" width="205" height="62" rx="18" fill="#a5d8ff" stroke="#1e1e1e" stroke-width="3"/>
<text x="392.5" y="331.0" text-anchor="middle" dominant-baseline="middle" font-family="Microsoft JhengHei, sans-serif" font-size="24" fill="#1e1e1e">晶片電阻</text>
<rect x="290" y="385" width="205" height="62" rx="18" fill="#a5d8ff" stroke="#1e1e1e" stroke-width="3"/>
<text x="392.5" y="416.0" text-anchor="middle" dominant-baseline="middle" font-family="Microsoft JhengHei, sans-serif" font-size="24" fill="#1e1e1e">功率電感</text>
<rect x="290" y="470" width="205" height="62" rx="18" fill="#a5d8ff" stroke="#1e1e1e" stroke-width="3"/>
<text x="392.5" y="501.0" text-anchor="middle" dominant-baseline="middle" font-family="Microsoft JhengHei, sans-serif" font-size="24" fill="#1e1e1e">鉭容/薄膜電容</text>
<rect x="540" y="120" width="205" height="65" rx="18" fill="#ffd8a8" stroke="#1e1e1e" stroke-width="3"/>
<text x="642.5" y="152.5" text-anchor="middle" dominant-baseline="middle" font-family="Microsoft JhengHei, sans-serif" font-size="24" fill="#1e1e1e">終端應用</text>
<rect x="540" y="215" width="205" height="62" rx="18" fill="#ffd8a8" stroke="#1e1e1e" stroke-width="3"/>
<text x="642.5" y="230.0" text-anchor="middle" dominant-baseline="middle" font-family="Microsoft JhengHei, sans-serif" font-size="24" fill="#1e1e1e">AI Server/H</text>
<text x="642.5" y="262.0" text-anchor="middle" dominant-baseline="middle" font-family="Microsoft JhengHei, sans-serif" font-size="24" fill="#1e1e1e">PC</text>
<rect x="540" y="300" width="205" height="62" rx="18" fill="#ffd8a8" stroke="#1e1e1e" stroke-width="3"/>
<text x="642.5" y="331.0" text-anchor="middle" dominant-baseline="middle" font-family="Microsoft JhengHei, sans-serif" font-size="24" fill="#1e1e1e">EV車用</text>
<rect x="540" y="385" width="205" height="62" rx="18" fill="#ffd8a8" stroke="#1e1e1e" stroke-width="3"/>
<text x="642.5" y="416.0" text-anchor="middle" dominant-baseline="middle" font-family="Microsoft JhengHei, sans-serif" font-size="24" fill="#1e1e1e">工控/能源</text>
<rect x="540" y="470" width="205" height="62" rx="18" fill="#ffd8a8" stroke="#1e1e1e" stroke-width="3"/>
<text x="642.5" y="501.0" text-anchor="middle" dominant-baseline="middle" font-family="Microsoft JhengHei, sans-serif" font-size="24" fill="#1e1e1e">消費電子</text>
<rect x="790" y="120" width="205" height="65" rx="18" fill="#d0bfff" stroke="#1e1e1e" stroke-width="3"/>
<text x="892.5" y="152.5" text-anchor="middle" dominant-baseline="middle" font-family="Microsoft JhengHei, sans-serif" font-size="24" fill="#1e1e1e">台灣公司</text>
<rect x="790" y="215" width="205" height="62" rx="18" fill="#d0bfff" stroke="#1e1e1e" stroke-width="3"/>
<text x="892.5" y="246.0" text-anchor="middle" dominant-baseline="middle" font-family="Microsoft JhengHei, sans-serif" font-size="24" fill="#1e1e1e">國巨</text>
<rect x="790" y="300" width="205" height="62" rx="18" fill="#d0bfff" stroke="#1e1e1e" stroke-width="3"/>
<text x="892.5" y="331.0" text-anchor="middle" dominant-baseline="middle" font-family="Microsoft JhengHei, sans-serif" font-size="24" fill="#1e1e1e">華新科</text>
<rect x="790" y="385" width="205" height="62" rx="18" fill="#d0bfff" stroke="#1e1e1e" stroke-width="3"/>
<text x="892.5" y="416.0" text-anchor="middle" dominant-baseline="middle" font-family="Microsoft JhengHei, sans-serif" font-size="24" fill="#1e1e1e">禾伸堂</text>
<rect x="790" y="470" width="205" height="62" rx="18" fill="#d0bfff" stroke="#1e1e1e" stroke-width="3"/>
<text x="892.5" y="501.0" text-anchor="middle" dominant-baseline="middle" font-family="Microsoft JhengHei, sans-serif" font-size="24" fill="#1e1e1e">大毅</text>
<rect x="790" y="555" width="205" height="62" rx="18" fill="#d0bfff" stroke="#1e1e1e" stroke-width="3"/>
<text x="892.5" y="586.0" text-anchor="middle" dominant-baseline="middle" font-family="Microsoft JhengHei, sans-serif" font-size="24" fill="#1e1e1e">奇力新/美桓</text>
<rect x="1040" y="120" width="205" height="65" rx="18" fill="#fff3bf" stroke="#1e1e1e" stroke-width="3"/>
<text x="1142.5" y="152.5" text-anchor="middle" dominant-baseline="middle" font-family="Microsoft JhengHei, sans-serif" font-size="24" fill="#1e1e1e">追蹤指標</text>
<rect x="1040" y="215" width="205" height="62" rx="18" fill="#fff3bf" stroke="#1e1e1e" stroke-width="3"/>
<text x="1142.5" y="246.0" text-anchor="middle" dominant-baseline="middle" font-family="Microsoft JhengHei, sans-serif" font-size="24" fill="#1e1e1e">月營收</text>
<rect x="1040" y="300" width="205" height="62" rx="18" fill="#fff3bf" stroke="#1e1e1e" stroke-width="3"/>
<text x="1142.5" y="315.0" text-anchor="middle" dominant-baseline="middle" font-family="Microsoft JhengHei, sans-serif" font-size="24" fill="#1e1e1e">ASP/Lead ti</text>
<text x="1142.5" y="347.0" text-anchor="middle" dominant-baseline="middle" font-family="Microsoft JhengHei, sans-serif" font-size="24" fill="#1e1e1e">me</text>
<rect x="1040" y="385" width="205" height="62" rx="18" fill="#fff3bf" stroke="#1e1e1e" stroke-width="3"/>
<text x="1142.5" y="416.0" text-anchor="middle" dominant-baseline="middle" font-family="Microsoft JhengHei, sans-serif" font-size="24" fill="#1e1e1e">稼動率/毛利率</text>
<rect x="1040" y="470" width="205" height="62" rx="18" fill="#fff3bf" stroke="#1e1e1e" stroke-width="3"/>
<text x="1142.5" y="501.0" text-anchor="middle" dominant-baseline="middle" font-family="Microsoft JhengHei, sans-serif" font-size="24" fill="#1e1e1e">DSI/AI車用占比</text>
</svg>