<svg xmlns="http://www.w3.org/2000/svg" width="1800" height="1050" viewBox="0 0 1800 1050" font-family="Noto Sans CJK TC, Noto Sans CJK SC, sans-serif">
<defs>
  <linearGradient id="bg" x1="0" y1="0" x2="0" y2="1">
    <stop offset="0" stop-color="#fbfcfe"/><stop offset="1" stop-color="#f3f5f9"/>
  </linearGradient>
  <filter id="soft" x="-30%" y="-30%" width="160%" height="160%">
    <feDropShadow dx="0" dy="5" stdDeviation="9" flood-color="#27324a" flood-opacity="0.10"/>
  </filter>
  <marker id="aFaint" markerWidth="11" markerHeight="11" refX="7.5" refY="4" orient="auto">
    <path d="M0,0 L9,4 L0,8 Z" fill="#8a93a6"/>
  </marker>
  <marker id="aViolet" markerWidth="12" markerHeight="12" refX="8" refY="4.2" orient="auto">
    <path d="M0,0 L9.5,4.2 L0,8.4 Z" fill="#8b5cf6"/>
  </marker>
</defs>
<rect x="0" y="0" width="1800" height="1050" fill="url(#bg)"/>
<rect x="1" y="1" width="1798" height="1048" rx="22" fill="none" stroke="#e9ecf3"/>

<text x="72" y="78" font-size="22" font-weight="bold" letter-spacing="3" fill="#0f766e">VALUE CHAIN · 產業鏈</text>
<text x="70" y="132" font-size="46" font-weight="bold" fill="#1f2430">被動元件產業鏈全貌</text>
<text x="72" y="172" font-size="22" fill="#5b6472">上游材料 → 元件製造 → 終端應用 → 台廠曝險 → 追蹤指標</text>
<rect x="43" y="320" width="330" height="340" rx="18" fill="#ffffff" stroke="#e6e8ef" filter="url(#soft)"/><path d="M61,320 h294 a18,18 0 0 1 18,18 v6 h-330 v-6 a18,18 0 0 1 18,-18 z" fill="#14b8a6"/><text x="69" y="382" font-size="27" font-weight="bold" fill="#0f766e">上游材料</text><text x="69" y="423" font-size="20" fill="#5b6472">BaTiO₃ 粉體</text><text x="69" y="456" font-size="20" fill="#5b6472">Ni / RuO₂ 漿料</text><text x="69" y="489" font-size="20" fill="#5b6472">鐵氧體 / 磁粉芯</text><text x="69" y="522" font-size="20" fill="#5b6472">NiCr / Cu 合金</text><rect x="389" y="320" width="330" height="340" rx="18" fill="#ffffff" stroke="#e6e8ef" filter="url(#soft)"/><path d="M407,320 h294 a18,18 0 0 1 18,18 v6 h-330 v-6 a18,18 0 0 1 18,-18 z" fill="#0ea5e9"/><text x="415" y="382" font-size="27" font-weight="bold" fill="#0369a1">元件製造</text><text x="415" y="423" font-size="20" fill="#5b6472">MLCC</text><text x="415" y="456" font-size="20" fill="#5b6472">晶片電阻</text><text x="415" y="489" font-size="20" fill="#5b6472">功率電感</text><text x="415" y="522" font-size="20" fill="#5b6472">鉭容 / 薄膜電容</text><rect x="735" y="320" width="330" height="340" rx="18" fill="#ffffff" stroke="#e6e8ef" filter="url(#soft)"/><path d="M753,320 h294 a18,18 0 0 1 18,18 v6 h-330 v-6 a18,18 0 0 1 18,-18 z" fill="#f59e0b"/><text x="761" y="382" font-size="27" font-weight="bold" fill="#b45309">終端應用</text><text x="761" y="423" font-size="20" fill="#5b6472">AI Server / HPC</text><text x="761" y="456" font-size="20" fill="#5b6472">電動車 EV</text><text x="761" y="489" font-size="20" fill="#5b6472">工控 / 能源</text><text x="761" y="522" font-size="20" fill="#5b6472">消費電子</text><rect x="1081" y="320" width="330" height="340" rx="18" fill="#ffffff" stroke="#e6e8ef" filter="url(#soft)"/><path d="M1099,320 h294 a18,18 0 0 1 18,18 v6 h-330 v-6 a18,18 0 0 1 18,-18 z" fill="#8b5cf6"/><text x="1107" y="382" font-size="27" font-weight="bold" fill="#6d28d9">台灣公司</text><text x="1107" y="423" font-size="20" fill="#5b6472">國巨 2327</text><text x="1107" y="456" font-size="20" fill="#5b6472">華新科 2492</text><text x="1107" y="489" font-size="20" fill="#5b6472">禾伸堂 3026</text><text x="1107" y="522" font-size="20" fill="#5b6472">大毅 2478</text><text x="1107" y="555" font-size="20" fill="#5b6472">奇力新</text><rect x="1427" y="320" width="330" height="340" rx="18" fill="#ffffff" stroke="#e6e8ef" filter="url(#soft)"/><path d="M1445,320 h294 a18,18 0 0 1 18,18 v6 h-330 v-6 a18,18 0 0 1 18,-18 z" fill="#6366f1"/><text x="1453" y="382" font-size="27" font-weight="bold" fill="#4338ca">追蹤指標</text><text x="1453" y="423" font-size="20" fill="#5b6472">月營收 MoM/YoY</text><text x="1453" y="456" font-size="20" fill="#5b6472">MLCC 現貨報價</text><text x="1453" y="489" font-size="20" fill="#5b6472">Lead time 週數</text><text x="1453" y="522" font-size="20" fill="#5b6472">稼動率 / 毛利率</text><text x="1453" y="555" font-size="20" fill="#5b6472">DSI · AI車用占比</text><line x1="377" y1="490.0" x2="383" y2="490.0" stroke="#8a93a6" stroke-width="2.4" marker-end="url(#aFaint)"/><line x1="723" y1="490.0" x2="729" y2="490.0" stroke="#8a93a6" stroke-width="2.4" marker-end="url(#aFaint)"/><line x1="1069" y1="490.0" x2="1075" y2="490.0" stroke="#8a93a6" stroke-width="2.4" marker-end="url(#aFaint)"/><line x1="1415" y1="490.0" x2="1421" y2="490.0" stroke="#8a93a6" stroke-width="2.4" marker-end="url(#aFaint)"/><circle cx="78" cy="974" r="8" fill="#14b8a6"/><text x="96" y="980" font-size="21" fill="#5b6472">材料</text><circle cx="222" cy="974" r="8" fill="#0ea5e9"/><text x="240" y="980" font-size="21" fill="#5b6472">元件</text><circle cx="366" cy="974" r="8" fill="#f59e0b"/><text x="384" y="980" font-size="21" fill="#5b6472">應用</text><circle cx="510" cy="974" r="8" fill="#8b5cf6"/><text x="528" y="980" font-size="21" fill="#5b6472">公司</text><circle cx="654" cy="974" r="8" fill="#6366f1"/><text x="672" y="980" font-size="21" fill="#5b6472">指標</text></svg>