<svg xmlns="http://www.w3.org/2000/svg" width="1700" height="900" viewBox="0 0 1700 900">
<rect width="100%" height="100%" fill="white"/>
<defs><marker id="arrow" markerWidth="10" markerHeight="10" refX="8" refY="3" orient="auto"><path d="M0,0 L0,6 L9,3 z" fill="#333"/></marker></defs>
<text x="50" y="75" font-family="Microsoft JhengHei, Noto Sans CJK TC, sans-serif" font-size="40" font-weight="700" fill="#1f1f1f" text-anchor="start"><tspan x="50" dy="0">圖二：AI Server 需求驗證流程</tspan></text>
<rect x="80" y="160" width="210" height="95" rx="18" fill="#ffd8a8" stroke="#1f1f1f" stroke-width="3"/>
<text x="185.0" y="193.75" font-family="Microsoft JhengHei, Noto Sans CJK TC, sans-serif" font-size="22" font-weight="400" fill="#1f1f1f" text-anchor="middle"><tspan x="185.0" dy="0">題材 / 傳聞</tspan><tspan x="185.0" dy="27.5">不外推 EPS</tspan></text>
<rect x="350" y="160" width="240" height="110" rx="18" fill="#a5d8ff" stroke="#1f1f1f" stroke-width="3"/>
<text x="470.0" y="187.5" font-family="Microsoft JhengHei, Noto Sans CJK TC, sans-serif" font-size="22" font-weight="400" fill="#1f1f1f" text-anchor="middle"><tspan x="470.0" dy="0">品類確認</tspan><tspan x="470.0" dy="27.5">MLCC / 鉭容</tspan><tspan x="470.0" dy="27.5">電感 / 電阻</tspan></text>
<rect x="660" y="160" width="260" height="120" rx="18" fill="#c3fae8" stroke="#1f1f1f" stroke-width="3"/>
<text x="790.0" y="192.5" font-family="Microsoft JhengHei, Noto Sans CJK TC, sans-serif" font-size="22" font-weight="400" fill="#1f1f1f" text-anchor="middle"><tspan x="790.0" dy="0">規格驗證</tspan><tspan x="790.0" dy="27.5">高容 / 低 ESL</tspan><tspan x="790.0" dy="27.5">高 Isat / 低 DCR</tspan></text>
<rect x="990" y="160" width="280" height="120" rx="18" fill="#d0bfff" stroke="#1f1f1f" stroke-width="3"/>
<text x="1130.0" y="192.5" font-family="Microsoft JhengHei, Noto Sans CJK TC, sans-serif" font-size="22" font-weight="400" fill="#1f1f1f" text-anchor="middle"><tspan x="1130.0" dy="0">供應鏈階段</tspan><tspan x="1130.0" dy="27.5">送樣 / AVL</tspan><tspan x="1130.0" dy="27.5">小量 / 大量量產</tspan></text>
<rect x="1340" y="160" width="280" height="120" rx="18" fill="#b2f2bb" stroke="#1f1f1f" stroke-width="3"/>
<text x="1480.0" y="192.5" font-family="Microsoft JhengHei, Noto Sans CJK TC, sans-serif" font-size="22" font-weight="400" fill="#1f1f1f" text-anchor="middle"><tspan x="1480.0" dy="0">財務驗證</tspan><tspan x="1480.0" dy="27.5">營收占比</tspan><tspan x="1480.0" dy="27.5">毛利率 / 訂單型態</tspan></text>
<rect x="745" y="430" width="260" height="110" rx="18" fill="#fff3bf" stroke="#1f1f1f" stroke-width="3"/>
<text x="875.0" y="457.5" font-family="Microsoft JhengHei, Noto Sans CJK TC, sans-serif" font-size="22" font-weight="400" fill="#1f1f1f" text-anchor="middle"><tspan x="875.0" dy="0">結論分流</tspan><tspan x="875.0" dy="27.5">納入 thesis</tspan><tspan x="875.0" dy="27.5">或列待確認</tspan></text>
<rect x="355" y="640" width="990" height="90" rx="18" fill="#ffc9c9" stroke="#1f1f1f" stroke-width="3"/>
<text x="850.0" y="685.0" font-family="Microsoft JhengHei, Noto Sans CJK TC, sans-serif" font-size="22" font-weight="400" fill="#1f1f1f" text-anchor="middle"><tspan x="850.0" dy="0">守門規則：未有一級 / 高品質來源佐證前，只能列為驗證問題；不可直接外推 EPS。</tspan></text>
<line x1="300" y1="207.5" x2="340" y2="215.0" stroke="#333" stroke-width="4" marker-end="url(#arrow)"/>
<line x1="600" y1="215.0" x2="650" y2="220.0" stroke="#333" stroke-width="4" marker-end="url(#arrow)"/>
<line x1="930" y1="220.0" x2="980" y2="220.0" stroke="#333" stroke-width="4" marker-end="url(#arrow)"/>
<line x1="1280" y1="220.0" x2="1330" y2="220.0" stroke="#333" stroke-width="4" marker-end="url(#arrow)"/>
<line x1="1480" y1="290" x2="1010" y2="430" stroke="#333" stroke-width="4" marker-end="url(#arrow)"/>
<line x1="875" y1="540" x2="875" y2="640" stroke="#333" stroke-width="4" marker-end="url(#arrow)"/>
</svg>
