<svg xmlns="http://www.w3.org/2000/svg" width="1550" height="900" viewBox="0 0 1550 900">
<rect width="100%" height="100%" fill="white"/>
<defs><marker id="arrow" markerWidth="10" markerHeight="10" refX="8" refY="3" orient="auto"><path d="M0,0 L0,6 L9,3 z" fill="#333"/></marker></defs>
<text x="50" y="75" font-family="Microsoft JhengHei, Noto Sans CJK TC, sans-serif" font-size="40" font-weight="700" fill="#1f1f1f" text-anchor="start"><tspan x="50" dy="0">圖三：車規認證與商業化路徑</tspan></text>
<rect x="80" y="160" width="240" height="95" rx="18" fill="#a5d8ff" stroke="#1f1f1f" stroke-width="3"/>
<text x="200.0" y="193.75" font-family="Microsoft JhengHei, Noto Sans CJK TC, sans-serif" font-size="22" font-weight="400" fill="#1f1f1f" text-anchor="middle"><tspan x="200.0" dy="0">AEC-Q200</tspan><tspan x="200.0" dy="27.5">可靠度門票</tspan></text>
<rect x="395" y="160" width="250" height="95" rx="18" fill="#a5d8ff" stroke="#1f1f1f" stroke-width="3"/>
<text x="520.0" y="193.75" font-family="Microsoft JhengHei, Noto Sans CJK TC, sans-serif" font-size="22" font-weight="400" fill="#1f1f1f" text-anchor="middle"><tspan x="520.0" dy="0">Tier-1 / OEM AVL</tspan><tspan x="520.0" dy="27.5">供應商名單</tspan></text>
<rect x="720" y="160" width="240" height="95" rx="18" fill="#a5d8ff" stroke="#1f1f1f" stroke-width="3"/>
<text x="840.0" y="193.75" font-family="Microsoft JhengHei, Noto Sans CJK TC, sans-serif" font-size="22" font-weight="400" fill="#1f1f1f" text-anchor="middle"><tspan x="840.0" dy="0">PPAP</tspan><tspan x="840.0" dy="27.5">量產前核准</tspan></text>
<rect x="1030" y="160" width="240" height="95" rx="18" fill="#b2f2bb" stroke="#1f1f1f" stroke-width="3"/>
<text x="1150.0" y="193.75" font-family="Microsoft JhengHei, Noto Sans CJK TC, sans-serif" font-size="22" font-weight="400" fill="#1f1f1f" text-anchor="middle"><tspan x="1150.0" dy="0">量產出貨</tspan><tspan x="1150.0" dy="27.5">營收驗證</tspan></text>
<rect x="1320" y="160" width="190" height="95" rx="18" fill="#b2f2bb" stroke="#1f1f1f" stroke-width="3"/>
<text x="1415.0" y="193.75" font-family="Microsoft JhengHei, Noto Sans CJK TC, sans-serif" font-size="22" font-weight="400" fill="#1f1f1f" text-anchor="middle"><tspan x="1415.0" dy="0">長期可靠度</tspan><tspan x="1415.0" dy="27.5">形成壁壘</tspan></text>
<rect x="130" y="390" width="250" height="80" rx="18" fill="#c3fae8" stroke="#1f1f1f" stroke-width="3"/>
<text x="255.0" y="416.25" font-family="Microsoft JhengHei, Noto Sans CJK TC, sans-serif" font-size="22" font-weight="400" fill="#1f1f1f" text-anchor="middle"><tspan x="255.0" dy="0">BMS</tspan><tspan x="255.0" dy="27.5">感測 / 保護</tspan></text>
<rect x="485" y="390" width="260" height="80" rx="18" fill="#c3fae8" stroke="#1f1f1f" stroke-width="3"/>
<text x="615.0" y="416.25" font-family="Microsoft JhengHei, Noto Sans CJK TC, sans-serif" font-size="22" font-weight="400" fill="#1f1f1f" text-anchor="middle"><tspan x="615.0" dy="0">OBC / DC-DC</tspan><tspan x="615.0" dy="27.5">電容 / 電感</tspan></text>
<rect x="870" y="390" width="250" height="80" rx="18" fill="#c3fae8" stroke="#1f1f1f" stroke-width="3"/>
<text x="995.0" y="416.25" font-family="Microsoft JhengHei, Noto Sans CJK TC, sans-serif" font-size="22" font-weight="400" fill="#1f1f1f" text-anchor="middle"><tspan x="995.0" dy="0">Inverter</tspan><tspan x="995.0" dy="27.5">薄膜 / 電阻</tspan></text>
<rect x="1220" y="390" width="220" height="80" rx="18" fill="#c3fae8" stroke="#1f1f1f" stroke-width="3"/>
<text x="1330.0" y="416.25" font-family="Microsoft JhengHei, Noto Sans CJK TC, sans-serif" font-size="22" font-weight="400" fill="#1f1f1f" text-anchor="middle"><tspan x="1330.0" dy="0">ADAS</tspan><tspan x="1330.0" dy="27.5">RF / EMI</tspan></text>
<line x1="330" y1="207.5" x2="385" y2="207.5" stroke="#333" stroke-width="4" marker-end="url(#arrow)"/>
<line x1="655" y1="207.5" x2="710" y2="207.5" stroke="#333" stroke-width="4" marker-end="url(#arrow)"/>
<line x1="970" y1="207.5" x2="1020" y2="207.5" stroke="#333" stroke-width="4" marker-end="url(#arrow)"/>
<line x1="1280" y1="207.5" x2="1310" y2="207.5" stroke="#333" stroke-width="4" marker-end="url(#arrow)"/>
<line x1="200.0" y1="265" x2="255.0" y2="380" stroke="#333" stroke-width="4" marker-end="url(#arrow)"/>
<line x1="520.0" y1="265" x2="615.0" y2="380" stroke="#333" stroke-width="4" marker-end="url(#arrow)"/>
<line x1="1150.0" y1="265" x2="995.0" y2="380" stroke="#333" stroke-width="4" marker-end="url(#arrow)"/>
<line x1="1415.0" y1="265" x2="1330.0" y2="380" stroke="#333" stroke-width="4" marker-end="url(#arrow)"/>
<rect x="290" y="640" width="970" height="85" rx="18" fill="#ffc9c9" stroke="#1f1f1f" stroke-width="3"/>
<text x="775.0" y="682.5" font-family="Microsoft JhengHei, Noto Sans CJK TC, sans-serif" font-size="22" font-weight="400" fill="#1f1f1f" text-anchor="middle"><tspan x="775.0" dy="0">紅旗：只說車規認證，卻沒有 AVL / PPAP / 量產 / 營收占比。</tspan></text>
</svg>
