<svg xmlns="http://www.w3.org/2000/svg" width="1800" height="1080" viewBox="0 0 1800 1080" font-family="Microsoft JhengHei, 微軟正黑體, sans-serif">
<defs>
  <linearGradient id="bg" x1="0" y1="0" x2="0" y2="1">
    <stop offset="0" stop-color="#fbfcfe"/><stop offset="1" stop-color="#f3f5f9"/>
  </linearGradient>
  <filter id="soft" x="-30%" y="-30%" width="160%" height="160%">
    <feDropShadow dx="0" dy="5" stdDeviation="9" flood-color="#27324a" flood-opacity="0.10"/>
  </filter>
  <marker id="aFaint" markerWidth="11" markerHeight="11" refX="7.5" refY="4" orient="auto">
    <path d="M0,0 L9,4 L0,8 Z" fill="#8a93a6"/>
  </marker>
  <marker id="aViolet" markerWidth="12" markerHeight="12" refX="8" refY="4.2" orient="auto">
    <path d="M0,0 L9.5,4.2 L0,8.4 Z" fill="#8b5cf6"/>
  </marker>
</defs>
<rect x="0" y="0" width="1800" height="1080" fill="url(#bg)"/>
<rect x="1" y="1" width="1798" height="1078" rx="22" fill="none" stroke="#e9ecf3"/>

<text x="72" y="78" font-size="22" font-weight="bold" letter-spacing="3" fill="#0f766e">MODEL ROLES · OMP</text>
<text x="70" y="132" font-size="46" font-weight="bold" fill="#1f2430">模型角色切換策略</text>
<text x="72" y="172" font-size="22" fill="#5b6472">依任務性質切換 Model Role。</text>
<rect x="70" y="480" width="300" height="145" rx="18" fill="#ffffff" stroke="#e6e8ef" filter="url(#soft)"/><path d="M88,480 h264 a18,18 0 0 1 18,18 v6 h-300 v-6 a18,18 0 0 1 18,-18 z" fill="#6366f1"/><text x="96" y="542" font-size="27" font-weight="bold" fill="#4338ca">收到 Coding Task</text><rect x="480" y="480" width="290" height="145" rx="18" fill="#ffffff" stroke="#e6e8ef" filter="url(#soft)"/><path d="M498,480 h254 a18,18 0 0 1 18,18 v6 h-290 v-6 a18,18 0 0 1 18,-18 z" fill="#8b5cf6"/><text x="506" y="542" font-size="27" font-weight="bold" fill="#6d28d9">任務難度</text><line x1="370" y1="552" x2="480" y2="552" stroke="#8a93a6" stroke-width="2.4" marker-end="url(#aFaint)"/><rect x="945" y="245" width="255" height="140" rx="18" fill="#ffffff" stroke="#e6e8ef" filter="url(#soft)"/><path d="M963,245 h219 a18,18 0 0 1 18,18 v6 h-255 v-6 a18,18 0 0 1 18,-18 z" fill="#14b8a6"/><text x="971" y="307" font-size="27" font-weight="bold" fill="#0f766e">smol</text><text x="971" y="348" font-size="20" fill="#5b6472">小修改 / 搜尋</text><rect x="1390" y="245" width="335" height="140" rx="18" fill="#ffffff" stroke="#e6e8ef" filter="url(#soft)"/><path d="M1408,245 h299 a18,18 0 0 1 18,18 v6 h-335 v-6 a18,18 0 0 1 18,-18 z" fill="#0ea5e9"/><text x="1416" y="307" font-size="27" font-weight="bold" fill="#0369a1">低成本快速完成</text><line x1="770" y1="552" x2="945" y2="315" stroke="#8a93a6" stroke-width="2.4" marker-end="url(#aFaint)"/><line x1="1200" y1="315" x2="1390" y2="315" stroke="#8a93a6" stroke-width="2.4" marker-end="url(#aFaint)"/><rect x="945" y="440" width="255" height="140" rx="18" fill="#ffffff" stroke="#e6e8ef" filter="url(#soft)"/><path d="M963,440 h219 a18,18 0 0 1 18,18 v6 h-255 v-6 a18,18 0 0 1 18,-18 z" fill="#14b8a6"/><text x="971" y="502" font-size="27" font-weight="bold" fill="#0f766e">default</text><text x="971" y="543" font-size="20" fill="#5b6472">一般 Coding</text><rect x="1390" y="440" width="335" height="140" rx="18" fill="#ffffff" stroke="#e6e8ef" filter="url(#soft)"/><path d="M1408,440 h299 a18,18 0 0 1 18,18 v6 h-335 v-6 a18,18 0 0 1 18,-18 z" fill="#0ea5e9"/><text x="1416" y="502" font-size="27" font-weight="bold" fill="#0369a1">主要工作模型</text><line x1="770" y1="552" x2="945" y2="510" stroke="#8a93a6" stroke-width="2.4" marker-end="url(#aFaint)"/><line x1="1200" y1="510" x2="1390" y2="510" stroke="#8a93a6" stroke-width="2.4" marker-end="url(#aFaint)"/><rect x="945" y="635" width="255" height="140" rx="18" fill="#ffffff" stroke="#e6e8ef" filter="url(#soft)"/><path d="M963,635 h219 a18,18 0 0 1 18,18 v6 h-255 v-6 a18,18 0 0 1 18,-18 z" fill="#14b8a6"/><text x="971" y="697" font-size="27" font-weight="bold" fill="#0f766e">slow</text><text x="971" y="738" font-size="20" fill="#5b6472">架構 / 疑難 Debug</text><rect x="1390" y="635" width="335" height="140" rx="18" fill="#ffffff" stroke="#e6e8ef" filter="url(#soft)"/><path d="M1408,635 h299 a18,18 0 0 1 18,18 v6 h-335 v-6 a18,18 0 0 1 18,-18 z" fill="#0ea5e9"/><text x="1416" y="697" font-size="27" font-weight="bold" fill="#0369a1">高推理能力</text><line x1="770" y1="552" x2="945" y2="705" stroke="#8a93a6" stroke-width="2.4" marker-end="url(#aFaint)"/><line x1="1200" y1="705" x2="1390" y2="705" stroke="#8a93a6" stroke-width="2.4" marker-end="url(#aFaint)"/><rect x="945" y="830" width="255" height="140" rx="18" fill="#ffffff" stroke="#e6e8ef" filter="url(#soft)"/><path d="M963,830 h219 a18,18 0 0 1 18,18 v6 h-255 v-6 a18,18 0 0 1 18,-18 z" fill="#14b8a6"/><text x="971" y="892" font-size="27" font-weight="bold" fill="#0f766e">plan</text><text x="971" y="933" font-size="20" fill="#5b6472">先規劃再做</text><rect x="1390" y="830" width="335" height="140" rx="18" fill="#ffffff" stroke="#e6e8ef" filter="url(#soft)"/><path d="M1408,830 h299 a18,18 0 0 1 18,18 v6 h-335 v-6 a18,18 0 0 1 18,-18 z" fill="#0ea5e9"/><text x="1416" y="892" font-size="27" font-weight="bold" fill="#0369a1">產生 Plan</text><line x1="770" y1="552" x2="945" y2="900" stroke="#8a93a6" stroke-width="2.4" marker-end="url(#aFaint)"/><line x1="1200" y1="900" x2="1390" y2="900" stroke="#8a93a6" stroke-width="2.4" marker-end="url(#aFaint)"/><circle cx="78" cy="1029" r="8" fill="#6366f1"/><text x="96" y="1035" font-size="21" fill="#5b6472">工作</text><circle cx="222" cy="1029" r="8" fill="#8b5cf6"/><text x="240" y="1035" font-size="21" fill="#5b6472">判斷</text><circle cx="366" cy="1029" r="8" fill="#14b8a6"/><text x="384" y="1035" font-size="21" fill="#5b6472">Model Role</text><circle cx="686" cy="1029" r="8" fill="#0ea5e9"/><text x="704" y="1035" font-size="21" fill="#5b6472">用途</text></svg>