<svg xmlns="http://www.w3.org/2000/svg" width="1660" height="1030" viewBox="0 0 1660 1030" font-family="Microsoft JhengHei, 微軟正黑體, sans-serif">
<defs>
  <linearGradient id="bg" x1="0" y1="0" x2="0" y2="1">
    <stop offset="0" stop-color="#fbfcfe"/><stop offset="1" stop-color="#f3f5f9"/>
  </linearGradient>
  <filter id="soft" x="-30%" y="-30%" width="160%" height="160%">
    <feDropShadow dx="0" dy="5" stdDeviation="9" flood-color="#27324a" flood-opacity="0.10"/>
  </filter>
  <marker id="aFaint" markerWidth="11" markerHeight="11" refX="7.5" refY="4" orient="auto">
    <path d="M0,0 L9,4 L0,8 Z" fill="#8a93a6"/>
  </marker>
  <marker id="aViolet" markerWidth="12" markerHeight="12" refX="8" refY="4.2" orient="auto">
    <path d="M0,0 L9.5,4.2 L0,8.4 Z" fill="#8b5cf6"/>
  </marker>
</defs>
<rect x="0" y="0" width="1660" height="1030" fill="url(#bg)"/>
<rect x="1" y="1" width="1658" height="1028" rx="22" fill="none" stroke="#e9ecf3"/>

<text x="72" y="78" font-size="22" font-weight="bold" letter-spacing="3" fill="#6d28d9">CVS-RADAR · SHOPPER UI</text>
<text x="70" y="132" font-size="46" font-weight="bold" fill="#1f2430">後端欄位到貨架訊號</text>
<text x="72" y="172" font-size="22" fill="#5b6472">把分析輸出翻成手機上能十秒看懂的判斷線索</text>
<rect x="90" y="260" width="360" height="145" rx="18" fill="#ffffff" stroke="#e6e8ef" filter="url(#soft)"/><path d="M108,260 h324 a18,18 0 0 1 18,18 v6 h-360 v-6 a18,18 0 0 1 18,-18 z" fill="#f59e0b"/><text x="116" y="322" font-size="27" font-weight="bold" fill="#b45309">fair_score</text><text x="116" y="363" font-size="20" fill="#5b6472">公正分數</text><text x="116" y="396" font-size="20" fill="#5b6472">越高越推薦</text><line x1="458" y1="332" x2="678" y2="332" stroke="#8a93a6" stroke-width="2.4" marker-end="url(#aFaint)"/><text x="690" y="295" font-size="28" font-weight="bold" fill="#b45309">分數顏色</text><rect x="690" y="315" width="145" height="92" rx="18" fill="#e7f6ec" stroke="#15803d" stroke-width="2.4"/><text x="762.5" y="373" font-size="30" font-weight="bold" text-anchor="middle" fill="#15803d">綠 89</text><rect x="857" y="315" width="145" height="92" rx="18" fill="#fef5e1" stroke="#b45309" stroke-width="2.4"/><text x="929.5" y="373" font-size="30" font-weight="bold" text-anchor="middle" fill="#b45309">黃 55</text><rect x="1024" y="315" width="145" height="92" rx="18" fill="#fdeaea" stroke="#be123c" stroke-width="2.4"/><text x="1096.5" y="373" font-size="30" font-weight="bold" text-anchor="middle" fill="#be123c">紅 32</text><rect x="90" y="440" width="360" height="145" rx="18" fill="#ffffff" stroke="#e6e8ef" filter="url(#soft)"/><path d="M108,440 h324 a18,18 0 0 1 18,18 v6 h-360 v-6 a18,18 0 0 1 18,-18 z" fill="#14b8a6"/><text x="116" y="502" font-size="27" font-weight="bold" fill="#0f766e">正 / 中 / 負分布</text><text x="116" y="543" font-size="20" fill="#5b6472">正向比例</text><text x="116" y="576" font-size="20" fill="#5b6472">替代無效徽章</text><line x1="458" y1="512" x2="678" y2="512" stroke="#8a93a6" stroke-width="2.4" marker-end="url(#aFaint)"/><rect x="690" y="440" width="510" height="145" rx="18" fill="#f0fdfa" stroke="#0f766e" stroke-width="2.6" filter="url(#soft)"/><text x="718" y="495" font-size="28" font-weight="bold" fill="#0f766e" font-family="Microsoft JhengHei, 微軟正黑體, sans-serif">正向 72%</text><text x="718" y="538" font-size="22" fill="#5b6472" font-family="Microsoft JhengHei, 微軟正黑體, sans-serif">迷你長條</text><rect x="940" y="528" width="210" height="18" rx="9" fill="#dbe4ee"/><rect x="940" y="528" width="151" height="18" rx="9" fill="#14b8a6"/><rect x="90" y="620" width="360" height="145" rx="18" fill="#ffffff" stroke="#e6e8ef" filter="url(#soft)"/><path d="M108,620 h324 a18,18 0 0 1 18,18 v6 h-360 v-6 a18,18 0 0 1 18,-18 z" fill="#0ea5e9"/><text x="116" y="682" font-size="27" font-weight="bold" fill="#0369a1">樣本數</text><text x="116" y="723" font-size="20" fill="#5b6472">聲量透明</text><text x="116" y="756" font-size="20" fill="#5b6472">避免過度解讀</text><line x1="458" y1="692" x2="678" y2="692" stroke="#8a93a6" stroke-width="2.4" marker-end="url(#aFaint)"/><rect x="690" y="620" width="510" height="145" rx="18" fill="#f0f9ff" stroke="#0369a1" stroke-width="2.6" filter="url(#soft)"/><text x="718" y="675" font-size="28" font-weight="bold" fill="#0369a1" font-family="Microsoft JhengHei, 微軟正黑體, sans-serif">N 則評價</text><text x="718" y="718" font-size="22" fill="#5b6472" font-family="Microsoft JhengHei, 微軟正黑體, sans-serif">顯示資料厚度</text><rect x="90" y="800" width="360" height="145" rx="18" fill="#ffffff" stroke="#e6e8ef" filter="url(#soft)"/><path d="M108,800 h324 a18,18 0 0 1 18,18 v6 h-360 v-6 a18,18 0 0 1 18,-18 z" fill="#f43f5e"/><text x="116" y="862" font-size="27" font-weight="bold" fill="#be123c">consensus</text><text x="116" y="903" font-size="20" fill="#5b6472">一致 / 兩極</text><text x="116" y="936" font-size="20" fill="#5b6472">樣本太少時</text><line x1="458" y1="872" x2="678" y2="872" stroke="#8a93a6" stroke-width="2.4" marker-end="url(#aFaint)"/><rect x="690" y="800" width="510" height="145" rx="18" fill="#fff1f2" stroke="#be123c" stroke-width="2.6" filter="url(#soft)"/><text x="718" y="855" font-size="28" font-weight="bold" fill="#be123c" font-family="Microsoft JhengHei, 微軟正黑體, sans-serif">資料不足</text><text x="718" y="898" font-size="22" fill="#5b6472" font-family="Microsoft JhengHei, 微軟正黑體, sans-serif">fallback</text><circle cx="78" cy="966" r="8" fill="#f59e0b"/><text x="96" y="972" font-size="21" fill="#5b6472">分數語意</text><circle cx="266" cy="966" r="8" fill="#14b8a6"/><text x="284" y="972" font-size="21" fill="#5b6472">分布訊號</text><circle cx="454" cy="966" r="8" fill="#0ea5e9"/><text x="472" y="972" font-size="21" fill="#5b6472">樣本厚度</text><circle cx="642" cy="966" r="8" fill="#f43f5e"/><text x="660" y="972" font-size="21" fill="#5b6472">不確定揭露</text></svg>